<?xml version="1.0" encoding="UTF-8" standalone="no"?>
<!-- Created with Inkscape (http://www.inkscape.org/) -->

<svg
   xmlns:osb="http://www.openswatchbook.org/uri/2009/osb"
   xmlns:dc="http://purl.org/dc/elements/1.1/"
   xmlns:cc="http://creativecommons.org/ns#"
   xmlns:rdf="http://www.w3.org/1999/02/22-rdf-syntax-ns#"
   xmlns:svg="http://www.w3.org/2000/svg"
   xmlns="http://www.w3.org/2000/svg"
   xmlns:xlink="http://www.w3.org/1999/xlink"
   xmlns:sodipodi="http://sodipodi.sourceforge.net/DTD/sodipodi-0.dtd"
   xmlns:inkscape="http://www.inkscape.org/namespaces/inkscape"
   width="150"
   height="29.999992"
   viewBox="0 0 39.687497 7.9374983"
   version="1.1"
   id="svg3056"
   inkscape:version="0.92.4 (5da689c313, 2019-01-14)"
   sodipodi:docname="fullLogoCenteringTest.svg">
  <defs
     id="defs3050">
    <linearGradient
       inkscape:collect="always"
       id="linearGradient7445">
      <stop
         style="stop-color:#93edff;stop-opacity:1;"
         offset="0"
         id="stop7441" />
      <stop
         style="stop-color:#b5ff93;stop-opacity:0.78846157"
         offset="1"
         id="stop7443" />
    </linearGradient>
    <linearGradient
       id="linearGradient7345"
       osb:paint="solid">
      <stop
         style="stop-color:#00d500;stop-opacity:1;"
         offset="0"
         id="stop7343" />
    </linearGradient>
    <linearGradient
       inkscape:collect="always"
       xlink:href="#linearGradient7445"
       id="linearGradient7447"
       x1="480"
       y1="2.519685e-05"
       x2="555"
       y2="125.00003"
       gradientUnits="userSpaceOnUse"
       gradientTransform="matrix(0.07150901,0,0,0.06614581,-14.928162,111.74426)" />
  </defs>
  <sodipodi:namedview
     id="base"
     pagecolor="#ffffff"
     bordercolor="#666666"
     borderopacity="1.0"
     inkscape:pageopacity="0.0"
     inkscape:pageshadow="2"
     inkscape:zoom="7.9195959"
     inkscape:cx="78.799818"
     inkscape:cy="25.494982"
     inkscape:document-units="px"
     inkscape:current-layer="layer1"
     showgrid="true"
     units="px"
     inkscape:window-width="1920"
     inkscape:window-height="1017"
     inkscape:window-x="-8"
     inkscape:window-y="-8"
     inkscape:window-maximized="1"
     showguides="false"
     fit-margin-top="0"
     fit-margin-left="0"
     fit-margin-right="0"
     fit-margin-bottom="0">
    <inkscape:grid
       type="xygrid"
       id="grid3601"
       originx="-1.3229162"
       originy="-177.27087" />
  </sodipodi:namedview>
  <metadata
     id="metadata3053">
    <rdf:RDF>
      <cc:Work
         rdf:about="">
        <dc:format>image/svg+xml</dc:format>
        <dc:type
           rdf:resource="http://purl.org/dc/dcmitype/StillImage" />
        <dc:title></dc:title>
      </cc:Work>
    </rdf:RDF>
  </metadata>
  <g
     inkscape:label="Layer 1"
     inkscape:groupmode="layer"
     id="layer1"
     transform="translate(-1.3229166,-111.79166)">
    <text
       id="text6720"
       y="111.36046"
       x="1.2754234"
       style="font-style:normal;font-variant:normal;font-weight:normal;font-stretch:normal;font-size:10.67582703px;line-height:1.25;font-family:'Sitka Display';-inkscape-font-specification:'Sitka Display';letter-spacing:0px;word-spacing:0px;fill:#000000;fill-opacity:1;stroke:none;stroke-width:0.26689568"
       xml:space="preserve"
       transform="scale(0.93930562,1.0646162)"><tspan
         style="font-style:normal;font-variant:normal;font-weight:normal;font-stretch:normal;font-size:7.11721849px;font-family:'Sitka Subheading';-inkscape-font-specification:'Sitka Subheading';fill:#000000;fill-opacity:1;stroke-width:0.26689568"
         y="111.36046"
         x="1.2754234"
         id="tspan6718"
         sodipodi:role="line">Macro</tspan></text>
    <text
       id="text6724"
       y="111.82704"
       x="26.835089"
       style="font-style:normal;font-variant:normal;font-weight:normal;font-stretch:normal;font-size:7.14674282px;line-height:1.25;font-family:'Sitka Subheading';-inkscape-font-specification:'Sitka Subheading';letter-spacing:0px;word-spacing:0px;fill:#000000;fill-opacity:1;stroke:none;stroke-width:0.26800287"
       xml:space="preserve"
       transform="scale(0.94313391,1.0602948)"><tspan
         style="fill:#000000;fill-opacity:1;stroke-width:0.26800287"
         y="111.82704"
         x="26.835089"
         id="tspan6722"
         sodipodi:role="line">Newt</tspan></text>
    <path
       inkscape:export-ydpi="7.39149"
       inkscape:export-xdpi="7.39149"
       inkscape:export-filename="C:\Users\evanm\image7314.png"
       inkscape:connector-curvature="0"
       id="path6129"
       d="m 24.049759,119.66382 c -0.0099,-0.004 -0.03509,-0.007 -0.0559,-0.008 -0.02081,-3.3e-4 -0.04035,-0.004 -0.04342,-0.009 -0.0031,-0.005 -0.01729,-0.008 -0.0316,-0.008 -0.01431,0 -0.02853,-0.004 -0.0316,-0.008 -0.0031,-0.005 -0.0155,-0.008 -0.02762,-0.008 -0.01212,0 -0.02204,-0.004 -0.02204,-0.008 0,-0.005 -0.01016,-0.008 -0.02257,-0.008 -0.01242,0 -0.02257,-0.004 -0.02257,-0.008 0,-0.005 -0.01016,-0.008 -0.02257,-0.008 -0.01242,0 -0.02257,-0.004 -0.02257,-0.008 0,-0.005 -0.0061,-0.008 -0.01367,-0.008 -0.0075,0 -0.02072,-0.003 -0.02935,-0.007 -0.0086,-0.004 -0.02584,-0.0112 -0.03825,-0.0158 -0.01242,-0.005 -0.04695,-0.0187 -0.07675,-0.0313 -0.06128,-0.0259 -0.07818,-0.0323 -0.160271,-0.0613 -0.01117,-0.004 -0.03797,-0.0152 -0.05954,-0.0251 -0.02158,-0.01 -0.04697,-0.0179 -0.05644,-0.0179 -0.0095,0 -0.01721,-0.004 -0.01721,-0.008 0,-0.005 -0.01195,-0.008 -0.02656,-0.008 -0.0146,0 -0.02907,-0.004 -0.03214,-0.008 -0.0031,-0.005 -0.03558,-0.008 -0.07223,-0.008 -0.03666,0 -0.06917,-0.004 -0.07224,-0.008 -0.0031,-0.005 -0.01956,-0.008 -0.03665,-0.008 -0.01709,0 -0.03107,-0.004 -0.03107,-0.008 0,-0.005 -0.0061,-0.008 -0.01348,-0.008 -0.01303,0 -0.03442,-0.0147 -0.08518,-0.0585 -0.02836,-0.0245 -0.08193,-0.0951 -0.08193,-0.108 0,-0.005 -0.0041,-0.009 -0.009,-0.009 -0.005,0 -0.009,-0.006 -0.009,-0.0123 0,-0.007 -0.0074,-0.0246 -0.01643,-0.0397 -0.02777,-0.0463 -0.08007,-0.17287 -0.113126,-0.27379 -0.06716,-0.205 -0.07594,-0.22381 -0.124968,-0.26783 -0.06232,-0.0559 -0.130503,-0.0589 -0.183344,-0.008 -0.02524,0.0244 -0.02847,0.0251 -0.109563,0.0251 -0.04596,0 -0.08607,-0.004 -0.08914,-0.008 -0.0031,-0.005 -0.02159,-0.008 -0.04117,-0.008 -0.01957,0 -0.03558,-0.004 -0.03558,-0.008 0,-0.005 -0.0091,-0.008 -0.02032,-0.008 -0.01117,-6e-5 -0.03657,-0.006 -0.05643,-0.0122 -0.01986,-0.007 -0.06124,-0.0122 -0.09194,-0.0124 -0.05094,-3.3e-4 -0.05731,0.002 -0.07292,0.0226 -0.05032,0.0676 -0.07335,0.23909 -0.04606,0.34292 0.01608,0.0612 0.02705,0.0684 0.103431,0.0684 0.03618,0 0.0683,-0.004 0.07137,-0.008 0.0031,-0.005 0.0155,-0.008 0.02762,-0.008 0.01212,0 0.02204,-0.004 0.02204,-0.008 0,-0.005 0.01758,-0.008 0.03906,-0.008 0.05136,0 0.07832,0.0248 0.07832,0.0722 0,0.0384 -0.02817,0.0698 -0.06256,0.0698 -0.02079,0 -0.0928,-0.0321 -0.09847,-0.0439 -0.0017,-0.003 -0.01259,-0.006 -0.0243,-0.006 -0.01171,0 -0.0238,-0.004 -0.02687,-0.008 -0.0031,-0.005 -0.02948,-0.008 -0.05869,-0.008 -0.02921,0 -0.05562,0.004 -0.05869,0.008 -0.0031,0.005 -0.01347,0.008 -0.02311,0.008 -0.0096,0 -0.01753,0.004 -0.01753,0.008 0,0.005 -0.0058,0.008 -0.01288,0.008 -0.01533,0 -0.04129,0.0449 -0.04129,0.0714 0,0.0205 0.02858,0.0728 0.09463,0.17326 0.03918,0.0596 0.0679,0.12461 0.0679,0.15377 0,0.018 -0.04536,0.0526 -0.06897,0.0526 -0.01165,0 -0.03137,-0.008 -0.04383,-0.0182 -0.01932,-0.0155 -0.02264,-0.0253 -0.02264,-0.0668 0,-0.0268 -0.004,-0.0486 -0.009,-0.0486 -0.005,0 -0.009,-0.007 -0.009,-0.015 0,-0.0187 -0.02018,-0.06 -0.02935,-0.0601 -0.0037,-3e-5 -0.0068,-0.008 -0.0068,-0.0168 0,-0.009 -0.0041,-0.0167 -0.009,-0.0167 -0.005,0 -0.009,-0.007 -0.009,-0.0149 0,-0.008 -0.0081,-0.0203 -0.01806,-0.0269 -0.0099,-0.007 -0.01806,-0.0171 -0.01806,-0.0233 0,-0.0161 -0.02294,-0.0352 -0.04224,-0.0351 -0.01818,6e-5 -0.03902,0.0344 -0.03902,0.0642 0,0.0106 -0.0041,0.0192 -0.009,0.0192 -0.005,0 -0.009,0.0205 -0.009,0.0455 0,0.025 -0.0041,0.0478 -0.009,0.0506 -0.005,0.003 -0.009,0.0292 -0.009,0.0585 0,0.0293 -0.0041,0.0556 -0.009,0.0585 -0.005,0.003 -0.009,0.0136 -0.009,0.0239 0,0.0285 -0.02019,0.062 -0.04325,0.0717 -0.01597,0.007 -0.02595,0.006 -0.04382,-0.005 -0.02173,-0.0132 -0.0229,-0.0174 -0.01925,-0.0689 0.0025,-0.0352 0.01221,-0.0713 0.02711,-0.10079 0.05004,-0.099 0.066,-0.20133 0.04127,-0.26459 -0.01021,-0.0261 -0.01335,-0.0277 -0.05375,-0.0277 -0.07299,0 -0.161017,0.0469 -0.254375,0.13567 -0.05589,0.0531 -0.06346,0.0577 -0.08127,0.0488 -0.02567,-0.0127 -0.0422,-0.0464 -0.0422,-0.0859 0,-0.0262 0.0032,-0.0317 0.01806,-0.0317 0.0099,0 0.01806,-0.004 0.01806,-0.008 0,-0.005 0.01828,-0.008 0.04063,-0.008 0.02235,0 0.04063,-0.004 0.04063,-0.008 0,-0.005 0.0099,-0.008 0.02204,-0.008 0.01212,0 0.02455,-0.004 0.02762,-0.008 0.0031,-0.005 0.01347,-0.008 0.02311,-0.008 0.0096,0 0.01753,-0.004 0.01753,-0.008 0,-0.005 0.0057,-0.008 0.01263,-0.008 0.0069,0 0.03571,-0.0112 0.06392,-0.025 0.1048,-0.051 0.127428,-0.0753 0.110858,-0.11931 -0.01038,-0.0275 -0.08394,-0.0979 -0.102337,-0.0979 -0.0071,0 -0.01283,-0.003 -0.01283,-0.006 0,-0.003 -0.01321,-0.0112 -0.02935,-0.0173 -0.01614,-0.006 -0.0364,-0.0144 -0.04502,-0.0187 -0.0086,-0.004 -0.02654,-0.008 -0.03983,-0.008 -0.02872,0 -0.07542,-0.044 -0.07542,-0.071 0,-0.0267 0.03661,-0.0542 0.07219,-0.0542 0.02453,0 0.03791,0.007 0.0694,0.0387 0.02145,0.0213 0.03901,0.0422 0.03901,0.0463 0,0.0123 0.04268,0.0481 0.06801,0.057 0.05504,0.0194 0.151302,0.003 0.162607,-0.0274 0.01505,-0.0407 0.03546,-0.16128 0.04589,-0.27131 0.0027,-0.0287 0.0087,-0.0522 0.01321,-0.0522 0.0045,0 0.0083,-0.0131 0.0083,-0.0292 0,-0.0161 0.0041,-0.0292 0.009,-0.0292 0.005,0 0.009,-0.0113 0.009,-0.0251 0,-0.0138 0.0041,-0.0251 0.009,-0.0251 0.005,0 0.009,-0.009 0.009,-0.0204 0,-0.0112 0.0041,-0.0227 0.009,-0.0255 0.005,-0.003 0.009,-0.0105 0.009,-0.0171 0,-0.012 0.01784,-0.0352 0.04764,-0.062 0.02647,-0.0238 0.08285,-0.0374 0.112163,-0.0272 0.01392,0.005 0.04968,0.0154 0.07948,0.0234 0.0298,0.008 0.05804,0.0177 0.06275,0.0215 0.0047,0.004 0.02822,0.007 0.05224,0.007 0.043,0 0.08059,-0.0151 0.103684,-0.0417 0.01223,-0.014 0.01538,-0.0419 0.0047,-0.0419 -0.0038,0 -0.01211,-0.011 -0.01856,-0.0245 -0.0065,-0.0135 -0.02675,-0.039 -0.04509,-0.0567 -0.01835,-0.0177 -0.04712,-0.047 -0.06394,-0.0653 -0.06952,-0.0752 -0.134082,-0.14216 -0.168179,-0.17432 -0.01993,-0.0188 -0.04628,-0.0473 -0.05856,-0.0634 -0.02741,-0.0359 -0.04419,-0.0552 -0.06792,-0.0783 -0.01004,-0.01 -0.02817,-0.0309 -0.04028,-0.047 -0.01212,-0.0161 -0.03336,-0.0392 -0.04721,-0.0514 -0.01385,-0.0122 -0.02519,-0.0253 -0.02519,-0.0292 -6e-6,-0.004 -0.0091,-0.0171 -0.02032,-0.0293 -0.0456,-0.05 -0.05096,-0.0566 -0.06159,-0.0752 -0.0061,-0.0107 -0.01372,-0.0213 -0.01694,-0.0236 -0.0463,-0.033 -0.190792,-0.32151 -0.244726,-0.4886 -0.0059,-0.0184 -0.01435,-0.0399 -0.0187,-0.0479 -0.0044,-0.008 -0.0079,-0.0218 -0.0079,-0.0308 0,-0.009 -0.0036,-0.0184 -0.008,-0.0209 -0.0044,-0.003 -0.01024,-0.0168 -0.01293,-0.0318 -0.0027,-0.015 -0.01145,-0.0629 -0.01946,-0.10657 -0.03038,-0.16561 4.29e-4,-0.64863 0.04877,-0.76422 0.01206,-0.0289 0.05472,-0.10687 0.08221,-0.15034 0.0366,-0.0579 0.09003,-0.17717 0.09003,-0.201 0,-0.0361 -0.0257,-0.0408 -0.257337,-0.0473 -0.26212,-0.007 -0.358386,-0.0135 -0.369753,-0.0238 -0.0047,-0.004 -0.01971,-0.008 -0.03333,-0.008 -0.01361,0 -0.02726,-0.004 -0.03033,-0.008 -0.0031,-0.005 -0.01729,-0.008 -0.0316,-0.008 -0.01431,0 -0.02853,-0.004 -0.0316,-0.008 -0.0031,-0.005 -0.01753,-0.008 -0.03213,-0.008 -0.01461,0 -0.02656,-0.004 -0.02656,-0.008 0,-0.005 -0.01601,-0.008 -0.03558,-0.008 -0.01957,0 -0.0381,-0.004 -0.04116,-0.008 -0.0031,-0.005 -0.02745,-0.008 -0.05418,-0.008 -0.02673,0 -0.05111,-0.004 -0.05418,-0.008 -0.0031,-0.005 -0.02769,-0.008 -0.05471,-0.008 -0.02702,0 -0.04913,-0.004 -0.04913,-0.008 0,-0.005 -0.01219,-0.008 -0.02709,-0.008 -0.0149,0 -0.02709,-0.004 -0.02709,-0.008 0,-0.005 -0.0043,-0.008 -0.0095,-0.008 -0.0093,0 -0.10807,-0.0557 -0.116948,-0.0659 -0.0025,-0.003 -0.01874,-0.015 -0.03612,-0.027 -0.01738,-0.012 -0.06207,-0.0486 -0.09931,-0.0814 -0.03724,-0.0328 -0.07458,-0.0596 -0.08299,-0.0596 -0.0084,0 -0.01779,-0.004 -0.02086,-0.008 -0.0033,-0.005 -0.05732,-0.008 -0.131591,-0.008 h -0.126011 l -0.01789,0.0272 c -0.01072,0.0163 -0.01796,0.0422 -0.01806,0.0647 -2.87e-4,0.0662 -0.0366,0.13363 -0.07196,0.13363 -0.02093,0 -0.05435,-0.0349 -0.05435,-0.0568 0,-0.0166 0.0152,-0.0361 0.0698,-0.0895 0.08662,-0.0847 0.07416,-0.18686 -0.03154,-0.25859 l -0.04278,-0.029 -0.102226,-2e-4 c -0.113505,-2.3e-4 -0.128023,-0.006 -0.128023,-0.0496 0,-0.0526 0.04963,-0.0748 0.09793,-0.0438 0.04867,0.0312 0.08618,0.0431 0.136507,0.0431 0.045,0 0.0545,-0.003 0.07988,-0.026 0.01584,-0.0143 0.0288,-0.0312 0.0288,-0.0376 0,-0.006 0.0041,-0.0115 0.009,-0.0115 0.005,0 0.009,-0.007 0.009,-0.0162 0,-0.009 0.0041,-0.0185 0.009,-0.0214 0.01283,-0.007 0.0112,-0.0843 -0.0023,-0.1066 -0.0062,-0.0103 -0.02246,-0.0277 -0.03612,-0.0387 -0.03392,-0.0273 -0.03515,-0.0809 -0.0025,-0.10923 0.03431,-0.0298 0.04715,-0.0131 0.05294,0.069 0.0082,0.11565 0.01909,0.15131 0.05753,0.1876 0.02891,0.0273 0.08296,0.0258 0.114304,-0.003 0.01309,-0.0121 0.0238,-0.0269 0.0238,-0.0329 0,-0.006 0.0035,-0.0129 0.0079,-0.0154 0.0043,-0.002 0.0075,0.01 0.0069,0.0278 -0.0012,0.0415 0.01401,0.0669 0.05475,0.0915 0.06317,0.0382 0.127102,0.0297 0.192725,-0.0255 0.04101,-0.0345 0.06047,-0.0417 0.08082,-0.0299 0.02185,0.0126 0.02226,0.0178 0.0035,0.0443 -0.0088,0.0124 -0.02319,0.0206 -0.03612,0.0206 -0.01185,0 -0.02154,0.004 -0.02154,0.008 0,0.005 -0.01321,0.009 -0.02935,0.009 -0.03802,8e-4 -0.07853,0.0231 -0.09819,0.0541 -0.01734,0.0273 -0.02189,0.0751 -0.0079,0.0831 0.005,0.003 0.009,0.0119 0.009,0.02 0,0.0276 0.107973,0.10107 0.148625,0.10107 0.0076,0 0.0139,0.004 0.0139,0.008 0,0.005 0.0079,0.008 0.01753,0.008 0.0096,0 0.02004,0.004 0.02311,0.008 0.0031,0.005 0.0155,0.008 0.02762,0.008 0.01212,0 0.02204,0.004 0.02204,0.008 0,0.005 0.01219,0.008 0.02709,0.008 0.0149,0 0.02709,0.004 0.02709,0.008 0,0.005 0.01195,0.008 0.02655,0.008 0.01461,0 0.02907,0.004 0.03214,0.008 0.0032,0.005 0.04958,0.008 0.108353,0.008 0.05877,0 0.105161,-0.004 0.108352,-0.008 0.0031,-0.005 0.04167,-0.008 0.08578,-0.008 0.04411,0 0.08271,-0.004 0.08578,-0.008 0.0033,-0.005 0.05431,-0.008 0.122553,-0.008 0.06433,0 0.124026,-0.003 0.132649,-0.008 0.110995,-0.0535 0.335587,-0.15114 0.347641,-0.15114 0.0086,0 0.01567,-0.004 0.01567,-0.008 0,-0.005 0.01601,-0.008 0.03558,-0.008 0.01957,0 0.0381,-0.004 0.04116,-0.008 0.0031,-0.005 0.01956,-0.008 0.03665,-0.008 0.01709,0 0.03107,-0.004 0.03107,-0.008 0,-0.005 0.006,-0.008 0.01344,-0.008 0.01829,0 0.0621,-0.0332 0.09491,-0.0719 0.01339,-0.0158 0.0266,-0.04 0.0462,-0.0847 0.0055,-0.0126 0.01367,-0.0295 0.01806,-0.0375 0.0044,-0.008 0.008,-0.0277 0.008,-0.0439 0,-0.0161 0.0041,-0.0293 0.009,-0.0293 0.0051,0 0.009,-0.0231 0.009,-0.0526 0,-0.0289 0.0038,-0.0562 0.0083,-0.0606 0.0073,-0.007 0.01972,-0.22423 0.01884,-0.32949 -9.22e-4,-0.11071 -0.01123,-0.25575 -0.01866,-0.26268 -0.0047,-0.004 -0.0085,-0.026 -0.0085,-0.048 0,-0.0221 -0.0041,-0.0401 -0.009,-0.0401 -0.005,0 -0.009,-0.015 -0.009,-0.0334 0,-0.0184 -0.0041,-0.0334 -0.009,-0.0334 -0.005,0 -0.009,-0.008 -0.009,-0.0168 0,-0.009 -0.0037,-0.0233 -0.0082,-0.0313 -0.0045,-0.008 -0.0186,-0.0352 -0.03125,-0.0604 -0.01265,-0.0253 -0.03228,-0.0572 -0.04363,-0.071 -0.0263,-0.0319 -0.120954,-0.11854 -0.161304,-0.14756 -0.0297,-0.0214 -0.210636,-0.18783 -0.253931,-0.23363 -0.08327,-0.0881 -0.122888,-0.12923 -0.140474,-0.14589 -0.01117,-0.0106 -0.02032,-0.0226 -0.02032,-0.0267 0,-0.004 -0.01117,-0.0187 -0.02483,-0.0323 -0.02389,-0.0239 -0.0371,-0.0421 -0.05643,-0.0779 -0.005,-0.009 -0.01309,-0.0242 -0.01806,-0.0333 -0.005,-0.009 -0.009,-0.0242 -0.009,-0.0334 0,-0.009 -0.0037,-0.0168 -0.0082,-0.0168 -0.02508,0 -0.02515,-0.26358 -7.1e-5,-0.28774 0.0045,-0.004 0.0082,-0.0201 0.0082,-0.035 0,-0.0149 0.0036,-0.0291 0.008,-0.0317 0.0044,-0.003 0.01063,-0.0187 0.01381,-0.036 0.01403,-0.0763 0.01671,-0.0857 0.0243,-0.0857 0.0044,0 0.008,-0.0113 0.008,-0.0251 0,-0.0138 0.0041,-0.0251 0.009,-0.0251 0.005,0 0.009,-0.008 0.009,-0.0168 0,-0.009 0.0041,-0.0243 0.009,-0.0334 l 0.01806,-0.0332 c 0.005,-0.009 0.009,-0.0223 0.009,-0.0292 0,-0.007 0.0041,-0.0126 0.009,-0.0126 0.005,0 0.009,-0.006 0.009,-0.0129 0,-0.007 0.0041,-0.0174 0.0092,-0.023 0.0051,-0.006 0.02532,-0.0336 0.045,-0.0624 0.05785,-0.0845 0.164578,-0.18743 0.29653,-0.28598 0.02153,-0.0161 0.04995,-0.0377 0.06316,-0.048 0.01321,-0.0103 0.0291,-0.0188 0.03531,-0.0188 0.0062,-10e-6 0.01129,-0.003 0.01129,-0.007 0,-0.008 0.05156,-0.0374 0.07901,-0.0449 0.02097,-0.006 0.02979,0.0117 0.01129,0.0222 -0.005,0.003 -0.009,0.0125 -0.009,0.0214 0,0.009 -0.0041,0.0162 -0.009,0.0162 -0.005,0 -0.009,0.008 -0.009,0.0167 0,0.009 -0.0036,0.0167 -0.008,0.0167 -0.0044,0 -0.01023,0.007 -0.01299,0.0146 -0.0053,0.0155 -0.03421,0.0619 -0.04292,0.0689 -0.0089,0.007 -0.08059,0.10738 -0.08059,0.11265 0,0.003 -0.0081,0.013 -0.01806,0.0229 -0.0099,0.01 -0.01806,0.0229 -0.01806,0.0289 0,0.006 -0.0033,0.011 -0.0073,0.011 -0.004,0 -0.01292,0.0132 -0.01974,0.0292 -0.0068,0.0161 -0.0157,0.0292 -0.01974,0.0292 -0.004,0 -0.0073,0.008 -0.0073,0.0167 0,0.009 -0.0041,0.0167 -0.009,0.0167 -0.005,0 -0.009,0.006 -0.009,0.0123 0,0.007 -0.0081,0.0256 -0.01806,0.042 -0.0099,0.0164 -0.01806,0.0369 -0.01806,0.0457 0,0.009 -0.0041,0.0183 -0.009,0.0211 -0.005,0.003 -0.009,0.0141 -0.009,0.0251 0,0.0109 -0.0041,0.0222 -0.009,0.0251 -0.005,0.003 -0.009,0.0173 -0.009,0.0322 0,0.0149 -0.0037,0.0306 -0.0082,0.035 -0.0174,0.0168 -0.03462,0.24311 -0.01956,0.25704 0.0053,0.005 0.0097,0.0233 0.0097,0.0407 0,0.0175 0.0041,0.0317 0.009,0.0317 0.005,0 0.009,0.008 0.009,0.0167 0,0.009 0.0041,0.0167 0.009,0.0167 0.005,0 0.009,0.005 0.009,0.0104 6e-6,0.006 0.0091,0.0205 0.02032,0.0328 0.01117,0.0123 0.03649,0.0405 0.05626,0.0626 0.01978,0.0221 0.109875,0.10978 0.200216,0.19477 0.27443,0.25815 0.376253,0.36079 0.484085,0.48794 0.02368,0.0279 0.04698,0.0552 0.05177,0.0607 0.01141,0.013 0.04335,0.065 0.06571,0.10699 0.0098,0.0184 0.02135,0.0399 0.0257,0.0479 0.0043,0.008 0.0079,0.0237 0.0079,0.035 0,0.0113 0.0041,0.0228 0.009,0.0257 0.005,0.003 0.009,0.0121 0.009,0.0206 0,0.008 0.0087,0.0318 0.01934,0.0517 0.06893,0.12932 0.09868,0.32044 0.101998,0.65529 0.002,0.20559 0.0025,0.21031 0.02347,0.23804 0.02611,0.0345 0.05786,0.0611 0.08907,0.0745 0.0129,0.006 0.03052,0.0134 0.03914,0.0174 0.0086,0.004 0.03581,0.007 0.06042,0.007 0.0246,0 0.04725,0.004 0.05032,0.008 0.0031,0.005 0.0146,0.008 0.02563,0.008 0.01103,0 0.0259,0.008 0.03306,0.0167 0.0076,0.01 0.02337,0.0167 0.03811,0.0167 0.0138,0 0.02509,0.004 0.02509,0.008 0,0.005 0.01601,0.008 0.03559,0.008 0.01957,0 0.0381,0.004 0.04116,0.008 0.0031,0.005 0.02978,0.008 0.05935,0.008 0.02957,0 0.06082,0.003 0.06945,0.007 0.0086,0.004 0.04006,0.0119 0.06986,0.0175 0.0298,0.006 0.07043,0.0137 0.09029,0.0181 0.01986,0.004 0.04831,0.01 0.06321,0.0124 0.0149,0.002 0.03521,0.008 0.04515,0.0115 0.03286,0.0133 0.09776,0.0186 0.230249,0.0189 0.195953,4.2e-4 0.219011,-0.007 0.318841,-0.0964 0.06676,-0.0601 0.118856,-0.12554 0.158635,-0.19929 0.02118,-0.0393 0.02308,-0.0929 0.0057,-0.16179 -0.01281,-0.0509 -0.06366,-0.12849 -0.11224,-0.17131 -0.02029,-0.0179 -0.03689,-0.0472 -0.03689,-0.0651 0,-0.0343 0.08592,-0.0702 0.103837,-0.0434 0.0031,0.005 0.01173,0.008 0.01924,0.008 0.03154,0 0.03945,0.0217 0.03945,0.10798 0,0.0505 0.0036,0.0841 0.009,0.0841 0.005,0 0.009,0.006 0.009,0.0129 0,0.007 0.02012,0.0315 0.04472,0.0543 0.04059,0.0375 0.04853,0.0414 0.0861,0.0414 0.08305,0 0.144085,-0.059 0.215842,-0.2088 0.02989,-0.0624 0.08675,-0.0766 0.127472,-0.0318 0.0645,0.0709 0.05156,0.0993 -0.06362,0.13966 -0.03276,0.0115 -0.09436,0.0632 -0.110968,0.0931 -0.0065,0.0118 -0.01058,0.0362 -0.009,0.0543 l 0.0029,0.0328 0.07138,0.002 c 0.0413,0.001 0.07535,-0.001 0.08081,-0.006 0.0052,-0.005 0.01866,-0.009 0.02993,-0.009 0.02166,0 0.07758,-0.026 0.09956,-0.0464 0.01551,-0.0144 0.02508,-0.015 0.04849,-0.003 0.01309,0.006 0.01747,0.0176 0.01747,0.0444 v 0.0357 l -0.110611,0.0108 c -0.06083,0.006 -0.123815,0.0165 -0.139955,0.0234 -0.02763,0.0119 -0.02934,0.0152 -0.02934,0.0563 0,0.0401 0.0032,0.0468 0.03974,0.0826 0.02186,0.0214 0.04623,0.0389 0.05418,0.0389 0.0079,0 0.01444,0.004 0.01444,0.008 0,0.005 0.0168,0.008 0.03734,0.008 0.02843,0 0.04243,0.005 0.05869,0.0213 0.01174,0.0117 0.02135,0.0228 0.02135,0.0247 0,0.0136 -0.02326,0.0459 -0.03305,0.0459 -0.0067,0 -0.0121,0.004 -0.0121,0.008 0,0.005 -0.0071,0.008 -0.0158,0.008 -0.01959,-3.3e-4 -0.0474,-0.0192 -0.0474,-0.0321 0,-0.0299 -0.104384,-0.14304 -0.132015,-0.14304 -0.0069,0 -0.01246,-0.004 -0.01246,-0.008 0,-0.005 -0.01941,-0.008 -0.04314,-0.008 -0.05634,0 -0.07424,0.0182 -0.07424,0.0753 0,0.0229 0.0041,0.0417 0.009,0.0417 0.005,0 0.009,0.006 0.009,0.0126 0,0.0163 0.04451,0.0626 0.06018,0.0626 0.0066,0 0.01205,0.004 0.01205,0.008 0,0.005 0.0097,0.008 0.02154,0.008 0.04049,0 0.06754,0.0691 0.0378,0.0967 -0.01492,0.0138 -0.03225,0.0157 -0.03225,0.004 0,-0.005 -0.0075,-0.008 -0.01661,-0.008 -0.01746,0 -0.03757,-0.0314 -0.03757,-0.0586 0,-0.0383 -0.09526,-0.1502 -0.12787,-0.1502 -0.0091,0 -0.03333,0.015 -0.0538,0.0334 -0.02047,0.0184 -0.04392,0.0334 -0.05211,0.0334 -0.01651,0 -0.07541,0.0449 -0.158698,0.12111 -0.03014,0.0276 -0.0659,0.0554 -0.07947,0.062 -0.01357,0.007 -0.02467,0.015 -0.02467,0.0188 0,0.004 -0.0061,0.007 -0.01354,0.007 -0.0074,0 -0.01354,0.003 -0.01354,0.008 0,0.004 -0.03758,0.01 -0.08352,0.0125 -0.04594,0.003 -0.124154,0.009 -0.173816,0.0132 -0.04966,0.005 -0.116704,0.0103 -0.148984,0.0129 -0.03228,0.003 -0.06682,0.008 -0.07675,0.0122 -0.0099,0.004 -0.03431,0.009 -0.05418,0.0118 -0.01987,0.002 -0.05846,0.008 -0.08578,0.0135 -0.02731,0.005 -0.08259,0.0105 -0.122839,0.012 -0.08779,0.003 -0.1461,0.0116 -0.153043,0.022 -0.0028,0.004 -0.01298,0.008 -0.02262,0.008 -0.0096,0 -0.01752,0.004 -0.01752,0.008 0,0.005 -0.0061,0.008 -0.01367,0.008 -0.0075,0 -0.02072,0.003 -0.02935,0.007 -0.07409,0.035 -0.133141,0.0594 -0.143359,0.0594 -0.0068,0 -0.01228,0.004 -0.01228,0.008 0,0.005 -0.0079,0.008 -0.01753,0.008 -0.0096,0 -0.02004,0.004 -0.02311,0.008 -0.0031,0.005 -0.01448,0.008 -0.02536,0.009 -0.02767,2.6e-4 -0.05559,0.0232 -0.07585,0.0625 -0.02101,0.0407 -0.04135,0.0737 -0.0488,0.0793 -0.0127,0.01 -0.08024,0.1363 -0.08024,0.15056 0,0.009 -0.0036,0.0175 -0.0079,0.02 -0.01862,0.0106 -0.02757,0.18222 -0.01293,0.24789 0.0084,0.0376 0.04463,0.10985 0.06974,0.13902 0.05064,0.0588 0.122671,0.1363 0.149466,0.16078 0.03316,0.0303 0.06091,0.0605 0.09963,0.10854 0.01242,0.0154 0.03079,0.0358 0.04083,0.0453 0.01004,0.01 0.02819,0.0305 0.04033,0.0466 0.01214,0.0161 0.02628,0.0335 0.03141,0.0387 0.0051,0.005 0.01542,0.0166 0.02287,0.0252 0.03238,0.0375 0.0961,0.10862 0.11061,0.12348 0.0087,0.009 0.0158,0.0211 0.0158,0.0272 0,0.006 0.0041,0.0109 0.009,0.0109 0.005,0 0.009,0.008 0.009,0.0167 0,0.009 0.0041,0.0167 0.009,0.0167 0.005,0 0.009,0.008 0.009,0.0167 0,0.009 0.0031,0.0167 0.0068,0.0167 0.0038,0 0.01215,0.0122 0.01865,0.0271 0.0065,0.0149 0.01562,0.0337 0.02026,0.0416 0.0046,0.008 0.0084,0.0202 0.0084,0.0271 0,0.007 0.0041,0.0127 0.009,0.0127 0.005,0 0.009,0.007 0.009,0.0162 0,0.009 0.0041,0.0185 0.009,0.0214 0.005,0.003 0.009,0.0141 0.009,0.0251 0,0.0109 0.0041,0.0222 0.009,0.025 0.005,0.003 0.009,0.0141 0.009,0.0251 0,0.0109 0.0041,0.0222 0.009,0.0251 0.005,0.003 0.009,0.0131 0.009,0.0229 0,0.0215 0.01515,0.067 0.03546,0.10659 0.01431,0.0279 0.01736,0.0294 0.0676,0.0318 0.0514,0.002 0.109238,-0.0143 0.146698,-0.0426 0.03161,-0.0239 0.182267,-0.16591 0.21525,-0.20292 0.03605,-0.0405 0.05722,-0.0599 0.108353,-0.0994 0.02701,-0.0209 0.06772,-0.0284 0.06772,-0.0126 0,0.005 0.0091,0.008 0.02032,0.009 0.01117,1e-4 0.03047,0.008 0.04289,0.0165 0.01242,0.009 0.02557,0.0164 0.02924,0.0165 0.01543,4.3e-4 0.166309,0.12374 0.277058,0.22643 0.06105,0.0566 0.09315,0.0744 0.134044,0.0744 0.03962,0 0.08336,-0.0313 0.08336,-0.0596 0,-0.009 0.0041,-0.0156 0.009,-0.0156 0.005,0 0.009,-0.0129 0.009,-0.0287 0,-0.0158 0.0041,-0.0311 0.009,-0.0339 0.0051,-0.003 0.009,-0.0432 0.009,-0.0924 0,-0.048 0.0036,-0.0872 0.008,-0.0872 0.0044,0 0.0101,-0.008 0.0127,-0.0167 0.0072,-0.0254 0.04916,-0.0219 0.07533,0.006 0.01175,0.0126 0.02136,0.0277 0.02137,0.0335 1.8e-5,0.0165 -0.03719,0.0855 -0.04613,0.0855 -0.0044,0 -0.008,0.007 -0.008,0.0162 0,0.009 -0.0041,0.0185 -0.009,0.0214 -0.005,0.003 -0.009,0.0162 -0.009,0.0297 0,0.0135 -0.0041,0.0246 -0.009,0.0246 -0.0051,0 -0.009,0.0249 -0.009,0.058 0,0.0319 -0.0041,0.0603 -0.009,0.0631 -0.005,0.003 -0.009,0.0181 -0.009,0.0339 v 0.0287 h 0.04913 c 0.02702,0 0.05164,-0.004 0.05471,-0.008 0.0031,-0.005 0.02745,-0.008 0.05418,-0.008 0.02673,0 0.05111,-0.004 0.05418,-0.008 0.0031,-0.005 0.01956,-0.008 0.03665,-0.008 0.01709,0 0.03107,-0.004 0.03107,-0.008 0,-0.005 0.0099,-0.008 0.02204,-0.008 0.01212,0 0.02455,-0.004 0.02762,-0.008 0.0031,-0.005 0.01347,-0.008 0.02311,-0.008 0.0096,0 0.01753,-0.004 0.01753,-0.008 0,-0.005 0.0073,-0.008 0.01625,-0.008 0.0089,0 0.02059,-0.004 0.0259,-0.009 0.0053,-0.005 0.0251,-0.008 0.044,-0.006 0.02842,0.002 0.03579,0.007 0.0427,0.026 0.01088,0.0304 0.002,0.0616 -0.02079,0.0729 -0.01357,0.007 -0.03158,0.005 -0.07149,-0.005 -0.02975,-0.008 -0.06861,-0.012 -0.08785,-0.01 -0.0505,0.006 -0.114483,0.0224 -0.124345,0.0315 -0.0047,0.004 -0.01589,0.008 -0.02483,0.008 -0.0089,0 -0.01625,0.004 -0.01625,0.008 0,0.005 -0.0061,0.008 -0.01354,0.008 -0.0074,0 -0.01354,0.004 -0.01354,0.008 0,0.005 -0.0057,0.008 -0.01258,0.008 -0.01465,0 -0.02354,0.0178 -0.02354,0.0472 0,0.0595 0.16084,0.19501 0.231408,0.19501 0.02814,0 0.08112,0.0323 0.09321,0.0568 0.02124,0.043 0.0056,0.0685 -0.04193,0.0685 -0.03444,0 -0.0431,-0.006 -0.17181,-0.1232 -0.05555,-0.0505 -0.10224,-0.0862 -0.113819,-0.0869 -0.03933,-0.003 -0.05606,0.002 -0.07135,0.0203 -0.01678,0.02 -0.02184,0.0729 -0.007,0.0729 0.005,0 0.009,0.011 0.009,0.0246 0,0.0135 0.0041,0.0269 0.009,0.0297 0.005,0.003 0.009,0.0238 0.009,0.0465 0,0.0228 0.0041,0.0489 0.009,0.058 0.005,0.009 0.01386,0.025 0.01977,0.0354 0.04606,0.0806 0.04644,0.0821 0.02756,0.10557 -0.02595,0.0323 -0.06947,0.0339 -0.09765,0.004 -0.01204,-0.013 -0.0219,-0.0337 -0.0219,-0.046 -6e-6,-0.0124 -0.0041,-0.0248 -0.009,-0.0276 -0.0051,-0.003 -0.009,-0.0431 -0.009,-0.0919 0,-0.0488 -0.0039,-0.089 -0.009,-0.0919 -0.005,-0.003 -0.009,-0.0121 -0.009,-0.0206 0,-0.0262 -0.03582,-0.0791 -0.06097,-0.0901 -0.04813,-0.021 -0.09844,-0.0114 -0.142026,0.0272 -0.02452,0.0217 -0.06953,0.0837 -0.08875,0.12225 -0.02033,0.0408 -0.06352,0.0824 -0.08556,0.0824 -0.03846,0 -0.06662,-0.0781 -0.03884,-0.10773 0.009,-0.01 0.02067,-0.0175 0.02583,-0.0175 0.03882,0 0.16365,-0.0912 0.182532,-0.1334 0.01015,-0.0227 0.0087,-0.0302 -0.01461,-0.073 -0.03118,-0.0575 -0.161641,-0.18236 -0.218645,-0.20934 -0.02273,-0.0108 -0.0557,-0.0186 -0.07841,-0.0186 -0.03463,0 -0.04382,0.004 -0.07915,0.038 -0.02199,0.0209 -0.04561,0.0482 -0.05251,0.0606 -0.0069,0.0124 -0.01477,0.0244 -0.0175,0.0267 -0.0027,0.002 -0.0147,0.0173 -0.02661,0.0334 -0.02697,0.0364 -0.121212,0.14402 -0.160198,0.18289 -0.04715,0.047 -0.06082,0.10451 -0.04948,0.20822 0.01076,0.0985 0.01877,0.10932 0.08095,0.10975 0.02111,1.5e-4 0.03837,0.004 0.03837,0.009 0,0.005 0.01601,0.008 0.03558,0.008 0.01957,0 0.0381,0.004 0.04117,0.008 0.0031,0.005 0.01932,0.008 0.03612,0.008 0.0168,0 0.03305,0.004 0.03612,0.008 0.0031,0.005 0.01314,0.008 0.02239,0.008 0.02395,0 0.134326,0.0536 0.171744,0.0834 0.01738,0.0138 0.03482,0.0252 0.03875,0.0252 0.0039,10e-6 0.01587,0.008 0.02653,0.0167 0.01066,0.009 0.02471,0.0167 0.03122,0.0167 0.0065,0 0.01184,0.004 0.01184,0.008 0,0.005 0.0081,0.008 0.01806,0.008 0.0099,0 0.01806,0.004 0.01806,0.008 0,0.005 0.0081,0.008 0.01806,0.008 0.0099,0 0.01806,0.004 0.01806,0.008 0,0.005 0.006,0.008 0.01344,0.008 0.01454,0 0.03643,0.0149 0.0804,0.0546 0.02666,0.0241 0.03609,0.0365 0.05684,0.0749 0.005,0.009 0.01373,0.0251 0.01947,0.0354 0.0057,0.0103 0.01044,0.0281 0.01044,0.0397 0,0.0115 0.0041,0.021 0.009,0.021 0.0051,0 0.009,0.0249 0.009,0.058 0,0.0319 0.0041,0.0603 0.009,0.0631 0.005,0.003 0.009,0.0386 0.009,0.0794 0,0.0408 0.0041,0.0765 0.009,0.0794 0.005,0.003 0.009,0.016 0.009,0.0292 0,0.0132 0.0041,0.0264 0.009,0.0292 0.005,0.003 0.009,0.0143 0.009,0.0255 0,0.0112 0.0041,0.0204 0.009,0.0204 0.005,0 0.009,0.008 0.009,0.0167 0,0.009 0.0041,0.0167 0.009,0.0167 0.005,0 0.009,0.009 0.009,0.0209 0,0.0115 0.0041,0.0209 0.009,0.0209 0.005,0 0.009,0.006 0.009,0.0126 0,0.007 0.0041,0.0201 0.009,0.0292 0.005,0.009 0.01309,0.0241 0.01806,0.0332 0.005,0.009 0.009,0.0223 0.009,0.0292 0,0.007 0.0041,0.0126 0.009,0.0126 0.005,0 0.009,0.008 0.009,0.0168 0,0.0162 0.0032,0.0243 0.02568,0.0645 0.0057,0.0103 0.01044,0.026 0.01044,0.035 0,0.009 0.0041,0.0186 0.009,0.0215 0.005,0.003 0.009,0.0141 0.009,0.0251 0,0.0109 0.0036,0.022 0.0081,0.0245 0.01292,0.007 0.02047,0.067 0.02489,0.19641 0.0039,0.11351 0.0029,0.12297 -0.01668,0.15868 -0.04101,0.0749 -0.117689,0.12767 -0.217319,0.14963 -0.04907,0.0108 -0.04996,0.0108 -0.07436,0.001 z"
       style="opacity:1;fill:#000000;fill-opacity:1;stroke:none;stroke-width:0.00868417;stroke-opacity:1" />
    <path
       style="opacity:1;fill:#93edff;fill-opacity:0.99519228;stroke:none;stroke-width:0.00307032;stroke-opacity:1"
       d=""
       id="path7375"
       inkscape:connector-curvature="0"
       inkscape:export-filename="C:\Users\evanm\image7314.png"
       inkscape:export-xdpi="7.39149"
       inkscape:export-ydpi="7.39149" />
    <path
       style="opacity:1;fill:url(#linearGradient7447);fill-opacity:1;stroke:none;stroke-width:0.00868417;stroke-opacity:1"
       d="m 24.049759,119.66382 c -0.0099,-0.004 -0.03509,-0.007 -0.0559,-0.008 -0.02081,-3.3e-4 -0.04035,-0.004 -0.04342,-0.009 -0.0031,-0.005 -0.01729,-0.008 -0.0316,-0.008 -0.01431,0 -0.02853,-0.004 -0.0316,-0.008 -0.0031,-0.005 -0.0155,-0.008 -0.02762,-0.008 -0.01212,0 -0.02204,-0.004 -0.02204,-0.008 0,-0.005 -0.01016,-0.008 -0.02257,-0.008 -0.01242,0 -0.02257,-0.004 -0.02257,-0.008 0,-0.005 -0.01016,-0.008 -0.02257,-0.008 -0.01242,0 -0.02257,-0.004 -0.02257,-0.008 0,-0.005 -0.0061,-0.008 -0.01367,-0.008 -0.0075,0 -0.02072,-0.003 -0.02935,-0.007 -0.0086,-0.004 -0.02584,-0.0112 -0.03825,-0.0158 -0.01242,-0.005 -0.04695,-0.0187 -0.07675,-0.0313 -0.06128,-0.0259 -0.07818,-0.0323 -0.160271,-0.0613 -0.01117,-0.004 -0.03797,-0.0152 -0.05954,-0.0251 -0.02158,-0.01 -0.04697,-0.0179 -0.05644,-0.0179 -0.0095,0 -0.01721,-0.004 -0.01721,-0.008 0,-0.005 -0.01195,-0.008 -0.02656,-0.008 -0.0146,0 -0.02907,-0.004 -0.03214,-0.008 -0.0031,-0.005 -0.03558,-0.008 -0.07223,-0.008 -0.03666,0 -0.06917,-0.004 -0.07224,-0.008 -0.0031,-0.005 -0.01956,-0.008 -0.03665,-0.008 -0.01709,0 -0.03107,-0.004 -0.03107,-0.008 0,-0.005 -0.0061,-0.008 -0.01348,-0.008 -0.01303,0 -0.03442,-0.0147 -0.08518,-0.0585 -0.02836,-0.0245 -0.08193,-0.0951 -0.08193,-0.108 0,-0.005 -0.0041,-0.009 -0.009,-0.009 -0.005,0 -0.009,-0.006 -0.009,-0.0123 0,-0.007 -0.0074,-0.0246 -0.01643,-0.0397 -0.02777,-0.0463 -0.08007,-0.17287 -0.113126,-0.27379 -0.06716,-0.205 -0.07594,-0.22381 -0.124968,-0.26783 -0.06232,-0.0559 -0.130503,-0.0589 -0.183344,-0.008 -0.02524,0.0244 -0.02847,0.0251 -0.109563,0.0251 -0.04596,0 -0.08607,-0.004 -0.08914,-0.008 -0.0031,-0.005 -0.02159,-0.008 -0.04117,-0.008 -0.01957,0 -0.03558,-0.004 -0.03558,-0.008 0,-0.005 -0.0091,-0.008 -0.02032,-0.008 -0.01117,-6e-5 -0.03657,-0.006 -0.05643,-0.0122 -0.01986,-0.007 -0.06124,-0.0122 -0.09194,-0.0124 -0.05094,-3.3e-4 -0.05731,0.002 -0.07292,0.0226 -0.05032,0.0676 -0.07335,0.23909 -0.04606,0.34292 0.01608,0.0612 0.02705,0.0684 0.103431,0.0684 0.03618,0 0.0683,-0.004 0.07137,-0.008 0.0031,-0.005 0.0155,-0.008 0.02762,-0.008 0.01212,0 0.02204,-0.004 0.02204,-0.008 0,-0.005 0.01758,-0.008 0.03906,-0.008 0.05136,0 0.07832,0.0248 0.07832,0.0722 0,0.0384 -0.02817,0.0698 -0.06256,0.0698 -0.02079,0 -0.0928,-0.0321 -0.09847,-0.0439 -0.0017,-0.003 -0.01259,-0.006 -0.0243,-0.006 -0.01171,0 -0.0238,-0.004 -0.02687,-0.008 -0.0031,-0.005 -0.02948,-0.008 -0.05869,-0.008 -0.02921,0 -0.05562,0.004 -0.05869,0.008 -0.0031,0.005 -0.01347,0.008 -0.02311,0.008 -0.0096,0 -0.01753,0.004 -0.01753,0.008 0,0.005 -0.0058,0.008 -0.01288,0.008 -0.01533,0 -0.04129,0.0449 -0.04129,0.0714 0,0.0205 0.02858,0.0728 0.09463,0.17326 0.03918,0.0596 0.0679,0.12461 0.0679,0.15377 0,0.018 -0.04536,0.0526 -0.06897,0.0526 -0.01165,0 -0.03137,-0.008 -0.04383,-0.0182 -0.01932,-0.0155 -0.02264,-0.0253 -0.02264,-0.0668 0,-0.0268 -0.004,-0.0486 -0.009,-0.0486 -0.005,0 -0.009,-0.007 -0.009,-0.015 0,-0.0187 -0.02018,-0.06 -0.02935,-0.0601 -0.0037,-3e-5 -0.0068,-0.008 -0.0068,-0.0168 0,-0.009 -0.0041,-0.0167 -0.009,-0.0167 -0.005,0 -0.009,-0.007 -0.009,-0.0149 0,-0.008 -0.0081,-0.0203 -0.01806,-0.0269 -0.0099,-0.007 -0.01806,-0.0171 -0.01806,-0.0233 0,-0.0161 -0.02294,-0.0352 -0.04224,-0.0351 -0.01818,6e-5 -0.03902,0.0344 -0.03902,0.0642 0,0.0106 -0.0041,0.0192 -0.009,0.0192 -0.005,0 -0.009,0.0205 -0.009,0.0455 0,0.025 -0.0041,0.0478 -0.009,0.0506 -0.005,0.003 -0.009,0.0292 -0.009,0.0585 0,0.0293 -0.0041,0.0556 -0.009,0.0585 -0.005,0.003 -0.009,0.0136 -0.009,0.0239 0,0.0285 -0.02019,0.062 -0.04325,0.0717 -0.01597,0.007 -0.02595,0.006 -0.04382,-0.005 -0.02173,-0.0132 -0.0229,-0.0174 -0.01925,-0.0689 0.0025,-0.0352 0.01221,-0.0713 0.02711,-0.10079 0.05004,-0.099 0.066,-0.20133 0.04127,-0.26459 -0.01021,-0.0261 -0.01335,-0.0277 -0.05375,-0.0277 -0.07299,0 -0.161017,0.0469 -0.254375,0.13567 -0.05589,0.0531 -0.06346,0.0577 -0.08127,0.0488 -0.02567,-0.0127 -0.0422,-0.0464 -0.0422,-0.0859 0,-0.0262 0.0032,-0.0317 0.01806,-0.0317 0.0099,0 0.01806,-0.004 0.01806,-0.008 0,-0.005 0.01828,-0.008 0.04063,-0.008 0.02235,0 0.04063,-0.004 0.04063,-0.008 0,-0.005 0.0099,-0.008 0.02204,-0.008 0.01212,0 0.02455,-0.004 0.02762,-0.008 0.0031,-0.005 0.01347,-0.008 0.02311,-0.008 0.0096,0 0.01753,-0.004 0.01753,-0.008 0,-0.005 0.0057,-0.008 0.01263,-0.008 0.0069,0 0.03571,-0.0112 0.06392,-0.025 0.1048,-0.051 0.127428,-0.0753 0.110858,-0.11931 -0.01038,-0.0275 -0.08394,-0.0979 -0.102337,-0.0979 -0.0071,0 -0.01283,-0.003 -0.01283,-0.006 0,-0.003 -0.01321,-0.0112 -0.02935,-0.0173 -0.01614,-0.006 -0.0364,-0.0144 -0.04502,-0.0187 -0.0086,-0.004 -0.02654,-0.008 -0.03983,-0.008 -0.02872,0 -0.07542,-0.044 -0.07542,-0.071 0,-0.0267 0.03661,-0.0542 0.07219,-0.0542 0.02453,0 0.03791,0.007 0.0694,0.0387 0.02145,0.0213 0.03901,0.0422 0.03901,0.0463 0,0.0123 0.04268,0.0481 0.06801,0.057 0.05504,0.0194 0.151302,0.003 0.162607,-0.0274 0.01505,-0.0407 0.03546,-0.16128 0.04589,-0.27131 0.0027,-0.0287 0.0087,-0.0522 0.01321,-0.0522 0.0045,0 0.0083,-0.0131 0.0083,-0.0292 0,-0.0161 0.0041,-0.0292 0.009,-0.0292 0.005,0 0.009,-0.0113 0.009,-0.0251 0,-0.0138 0.0041,-0.0251 0.009,-0.0251 0.005,0 0.009,-0.009 0.009,-0.0204 0,-0.0112 0.0041,-0.0227 0.009,-0.0255 0.005,-0.003 0.009,-0.0105 0.009,-0.0171 0,-0.012 0.01784,-0.0352 0.04764,-0.062 0.02647,-0.0238 0.08285,-0.0374 0.112163,-0.0272 0.01392,0.005 0.04968,0.0154 0.07948,0.0234 0.0298,0.008 0.05804,0.0177 0.06275,0.0215 0.0047,0.004 0.02822,0.007 0.05224,0.007 0.043,0 0.08059,-0.0151 0.103684,-0.0417 0.01223,-0.014 0.01538,-0.0419 0.0047,-0.0419 -0.0038,0 -0.01211,-0.011 -0.01856,-0.0245 -0.0065,-0.0135 -0.02675,-0.039 -0.04509,-0.0567 -0.01835,-0.0177 -0.04712,-0.047 -0.06394,-0.0653 -0.06952,-0.0752 -0.134082,-0.14216 -0.168179,-0.17432 -0.01993,-0.0188 -0.04628,-0.0473 -0.05856,-0.0634 -0.02741,-0.0359 -0.04419,-0.0552 -0.06792,-0.0783 -0.01004,-0.01 -0.02817,-0.0309 -0.04028,-0.047 -0.01212,-0.0161 -0.03336,-0.0392 -0.04721,-0.0514 -0.01385,-0.0122 -0.02519,-0.0253 -0.02519,-0.0292 -6e-6,-0.004 -0.0091,-0.0171 -0.02032,-0.0293 -0.0456,-0.05 -0.05096,-0.0566 -0.06159,-0.0752 -0.0061,-0.0107 -0.01372,-0.0213 -0.01694,-0.0236 -0.0463,-0.033 -0.190792,-0.32151 -0.244726,-0.4886 -0.0059,-0.0184 -0.01435,-0.0399 -0.0187,-0.0479 -0.0044,-0.008 -0.0079,-0.0218 -0.0079,-0.0308 0,-0.009 -0.0036,-0.0184 -0.008,-0.0209 -0.0044,-0.003 -0.01024,-0.0168 -0.01293,-0.0318 -0.0027,-0.015 -0.01145,-0.0629 -0.01946,-0.10657 -0.03038,-0.16561 4.29e-4,-0.64863 0.04877,-0.76422 0.01206,-0.0289 0.05472,-0.10687 0.08221,-0.15034 0.0366,-0.0579 0.09003,-0.17717 0.09003,-0.201 0,-0.0361 -0.0257,-0.0408 -0.257337,-0.0473 -0.26212,-0.007 -0.358386,-0.0135 -0.369753,-0.0238 -0.0047,-0.004 -0.01971,-0.008 -0.03333,-0.008 -0.01361,0 -0.02726,-0.004 -0.03033,-0.008 -0.0031,-0.005 -0.01729,-0.008 -0.0316,-0.008 -0.01431,0 -0.02853,-0.004 -0.0316,-0.008 -0.0031,-0.005 -0.01753,-0.008 -0.03213,-0.008 -0.01461,0 -0.02656,-0.004 -0.02656,-0.008 0,-0.005 -0.01601,-0.008 -0.03558,-0.008 -0.01957,0 -0.0381,-0.004 -0.04116,-0.008 -0.0031,-0.005 -0.02745,-0.008 -0.05418,-0.008 -0.02673,0 -0.05111,-0.004 -0.05418,-0.008 -0.0031,-0.005 -0.02769,-0.008 -0.05471,-0.008 -0.02702,0 -0.04913,-0.004 -0.04913,-0.008 0,-0.005 -0.01219,-0.008 -0.02709,-0.008 -0.0149,0 -0.02709,-0.004 -0.02709,-0.008 0,-0.005 -0.0043,-0.008 -0.0095,-0.008 -0.0093,0 -0.10807,-0.0557 -0.116948,-0.0659 -0.0025,-0.003 -0.01874,-0.015 -0.03612,-0.027 -0.01738,-0.012 -0.06207,-0.0486 -0.09931,-0.0814 -0.03724,-0.0328 -0.07458,-0.0596 -0.08299,-0.0596 -0.0084,0 -0.01779,-0.004 -0.02086,-0.008 -0.0033,-0.005 -0.05732,-0.008 -0.131591,-0.008 h -0.126011 l -0.01789,0.0272 c -0.01072,0.0163 -0.01796,0.0422 -0.01806,0.0647 -2.87e-4,0.0662 -0.0366,0.13363 -0.07196,0.13363 -0.02093,0 -0.05435,-0.0349 -0.05435,-0.0568 0,-0.0166 0.0152,-0.0361 0.0698,-0.0895 0.08662,-0.0847 0.07416,-0.18686 -0.03154,-0.25859 l -0.04278,-0.029 -0.102226,-2e-4 c -0.113505,-2.3e-4 -0.128023,-0.006 -0.128023,-0.0496 0,-0.0526 0.04963,-0.0748 0.09793,-0.0438 0.04867,0.0312 0.08618,0.0431 0.136507,0.0431 0.045,0 0.0545,-0.003 0.07988,-0.026 0.01584,-0.0143 0.0288,-0.0312 0.0288,-0.0376 0,-0.006 0.0041,-0.0115 0.009,-0.0115 0.005,0 0.009,-0.007 0.009,-0.0162 0,-0.009 0.0041,-0.0185 0.009,-0.0214 0.01283,-0.007 0.0112,-0.0843 -0.0023,-0.1066 -0.0062,-0.0103 -0.02246,-0.0277 -0.03612,-0.0387 -0.03392,-0.0273 -0.03515,-0.0809 -0.0025,-0.10923 0.03431,-0.0298 0.04715,-0.0131 0.05294,0.069 0.0082,0.11565 0.01909,0.15131 0.05753,0.1876 0.02891,0.0273 0.08296,0.0258 0.114304,-0.003 0.01309,-0.0121 0.01143,4e-5 0.06556,-0.11642 0.07428,-0.15983 0.04505,0.0672 0.04505,0.0672 0.0043,-0.002 0.07201,-0.29333 0,0 -0.0012,0.0415 -0.058,0.0956 -0.01726,0.12025 0.06317,0.0382 0.127102,0.0297 0.192725,-0.0255 0.04101,-0.0345 0.06047,-0.0417 0.08082,-0.0299 0.02185,0.0126 0.02226,0.0178 0.0035,0.0443 -0.0088,0.0124 -0.02319,0.0206 -0.03612,0.0206 -0.01185,0 -0.02154,0.004 -0.02154,0.008 0,0.005 -0.01321,0.009 -0.02935,0.009 -0.03802,8e-4 -0.07853,0.0231 -0.09819,0.0541 -0.01734,0.0273 -0.02189,0.0751 -0.0079,0.0831 0.005,0.003 0.009,0.0119 0.009,0.02 0,0.0276 0.107973,0.10107 0.148625,0.10107 0.0076,0 0.0139,0.004 0.0139,0.008 0,0.005 0.0079,0.008 0.01753,0.008 0.0096,0 0.02004,0.004 0.02311,0.008 0.0031,0.005 0.0155,0.008 0.02762,0.008 0.01212,0 0.02204,0.004 0.02204,0.008 0,0.005 0.01219,0.008 0.02709,0.008 0.0149,0 0.02709,0.004 0.02709,0.008 0,0.005 0.01195,0.008 0.02655,0.008 0.01461,0 0.02907,0.004 0.03214,0.008 0.0032,0.005 0.04958,0.008 0.108353,0.008 0.05877,0 0.105161,-0.004 0.108352,-0.008 0.0031,-0.005 0.04167,-0.008 0.08578,-0.008 0.04411,0 0.08271,-0.004 0.08578,-0.008 0.0033,-0.005 0.05431,-0.008 0.122553,-0.008 0.06433,0 0.124026,-0.003 0.132649,-0.008 0.110995,-0.0535 0.335587,-0.15114 0.347641,-0.15114 0.0086,0 0.01567,-0.004 0.01567,-0.008 0,-0.005 0.01601,-0.008 0.03558,-0.008 0.01957,0 0.0381,-0.004 0.04116,-0.008 0.0031,-0.005 0.01956,-0.008 0.03665,-0.008 0.01709,0 0.03107,-0.004 0.03107,-0.008 0,-0.005 0.006,-0.008 0.01344,-0.008 0.01829,0 0.0621,-0.0332 0.09491,-0.0719 0.01339,-0.0158 0.0266,-0.04 0.0462,-0.0847 0.0055,-0.0126 0.01367,-0.0295 0.01806,-0.0375 0.0044,-0.008 0.008,-0.0277 0.008,-0.0439 0,-0.0161 0.0041,-0.0293 0.009,-0.0293 0.0051,0 0.009,-0.0231 0.009,-0.0526 0,-0.0289 0.0038,-0.0562 0.0083,-0.0606 0.0073,-0.007 0.01972,-0.22423 0.01884,-0.32949 -9.22e-4,-0.11071 -0.01123,-0.25575 -0.01866,-0.26268 -0.0047,-0.004 -0.0085,-0.026 -0.0085,-0.048 0,-0.0221 -0.0041,-0.0401 -0.009,-0.0401 -0.005,0 -0.009,-0.015 -0.009,-0.0334 0,-0.0184 -0.0041,-0.0334 -0.009,-0.0334 -0.005,0 -0.009,-0.008 -0.009,-0.0168 0,-0.009 -0.0037,-0.0233 -0.0082,-0.0313 -0.0045,-0.008 -0.0186,-0.0352 -0.03125,-0.0604 -0.01265,-0.0253 -0.03228,-0.0572 -0.04363,-0.071 -0.0263,-0.0319 -0.120954,-0.11854 -0.161304,-0.14756 -0.0297,-0.0214 -0.210636,-0.18783 -0.253931,-0.23363 -0.08327,-0.0881 -0.122888,-0.12923 -0.140474,-0.14589 -0.01117,-0.0106 -0.02032,-0.0226 -0.02032,-0.0267 0,-0.004 -0.01117,-0.0187 -0.02483,-0.0323 -0.02389,-0.0239 -0.0371,-0.0421 -0.05643,-0.0779 -0.005,-0.009 -0.01309,-0.0242 -0.01806,-0.0333 -0.005,-0.009 -0.009,-0.0242 -0.009,-0.0334 0,-0.009 -0.0037,-0.0168 -0.0082,-0.0168 -0.02508,0 -0.02515,-0.26358 -7.1e-5,-0.28774 0.0045,-0.004 0.0082,-0.0201 0.0082,-0.035 0,-0.0149 0.0036,-0.0291 0.008,-0.0317 0.0044,-0.003 0.01063,-0.0187 0.01381,-0.036 0.01403,-0.0763 0.01671,-0.0857 0.0243,-0.0857 0.0044,0 0.008,-0.0113 0.008,-0.0251 0,-0.0138 0.0041,-0.0251 0.009,-0.0251 0.005,0 0.009,-0.008 0.009,-0.0168 0,-0.009 0.0041,-0.0243 0.009,-0.0334 l 0.01806,-0.0332 c 0.005,-0.009 0.009,-0.0223 0.009,-0.0292 0,-0.007 0.0041,-0.0126 0.009,-0.0126 0.005,0 0.009,-0.006 0.009,-0.0129 0,-0.007 0.0041,-0.0174 0.0092,-0.023 0.0051,-0.006 0.02532,-0.0336 0.045,-0.0624 0.05785,-0.0845 0.164578,-0.18743 0.29653,-0.28598 0.02153,-0.0161 0.04995,-0.0377 0.06316,-0.048 0.01321,-0.0103 0.0291,-0.0188 0.03531,-0.0188 0.0062,-1e-5 0.01129,-0.003 0.01129,-0.007 0,-0.008 0.05156,-0.0374 0.07901,-0.0449 0.02097,-0.006 0.02979,0.0117 0.01129,0.0222 -0.005,0.003 -0.009,0.0125 -0.009,0.0214 0,0.009 -0.0041,0.0162 -0.009,0.0162 -0.005,0 -0.009,0.008 -0.009,0.0167 0,0.009 -0.0036,0.0167 -0.008,0.0167 -0.0044,0 -0.01023,0.007 -0.01299,0.0146 -0.0053,0.0155 -0.03421,0.0619 -0.04292,0.0689 -0.0089,0.007 -0.08059,0.10738 -0.08059,0.11265 0,0.003 -0.0081,0.013 -0.01806,0.0229 -0.0099,0.01 -0.01806,0.0229 -0.01806,0.0289 0,0.006 -0.0033,0.011 -0.0073,0.011 -0.004,0 -0.01292,0.0132 -0.01974,0.0292 -0.0068,0.0161 -0.0157,0.0292 -0.01974,0.0292 -0.004,0 -0.0073,0.008 -0.0073,0.0167 0,0.009 -0.0041,0.0167 -0.009,0.0167 -0.005,0 -0.009,0.006 -0.009,0.0123 0,0.007 -0.0081,0.0256 -0.01806,0.042 -0.0099,0.0164 -0.01806,0.0369 -0.01806,0.0457 0,0.009 -0.0041,0.0183 -0.009,0.0211 -0.005,0.003 -0.009,0.0141 -0.009,0.0251 0,0.0109 -0.0041,0.0222 -0.009,0.0251 -0.005,0.003 -0.009,0.0173 -0.009,0.0322 0,0.0149 -0.0037,0.0306 -0.0082,0.035 -0.0174,0.0168 -0.03462,0.24311 -0.01956,0.25704 0.0053,0.005 0.0097,0.0233 0.0097,0.0407 0,0.0175 0.0041,0.0317 0.009,0.0317 0.005,0 0.009,0.008 0.009,0.0167 0,0.009 0.0041,0.0167 0.009,0.0167 0.005,0 0.009,0.005 0.009,0.0104 6e-6,0.006 0.0091,0.0205 0.02032,0.0328 0.01117,0.0123 0.03649,0.0405 0.05626,0.0626 0.01978,0.0221 0.109875,0.10977 0.200216,0.19476 0.27443,0.25815 0.376253,0.36079 0.484085,0.48794 0.02368,0.0279 0.04698,0.0552 0.05177,0.0607 0.01141,0.013 0.04335,0.065 0.06571,0.10699 0.0098,0.0184 0.02135,0.0399 0.0257,0.0479 0.0043,0.008 0.0079,0.0237 0.0079,0.035 0,0.0113 0.0041,0.0228 0.009,0.0257 0.005,0.003 0.009,0.0121 0.009,0.0206 0,0.008 0.0087,0.0318 0.01934,0.0517 0.06893,0.12932 0.09868,0.32044 0.101998,0.65529 0.002,0.20559 0.0025,0.21031 0.02347,0.23804 0.02611,0.0345 0.05786,0.0611 0.08907,0.0745 0.0129,0.006 0.03052,0.0134 0.03914,0.0174 0.0086,0.004 0.03581,0.007 0.06042,0.007 0.0246,0 0.04725,0.004 0.05032,0.008 0.0031,0.005 0.0146,0.008 0.02563,0.008 0.01103,0 0.0259,0.008 0.03306,0.0167 0.0076,0.01 0.02337,0.0167 0.03811,0.0167 0.0138,0 0.02509,0.004 0.02509,0.008 0,0.005 0.01601,0.008 0.03559,0.008 0.01957,0 0.0381,0.004 0.04116,0.008 0.0031,0.005 0.02978,0.008 0.05935,0.008 0.02957,0 0.06082,0.003 0.06945,0.007 0.0086,0.004 0.04006,0.0119 0.06986,0.0175 0.0298,0.006 0.07043,0.0137 0.09029,0.0181 0.01986,0.004 0.04831,0.01 0.06321,0.0124 0.0149,0.002 0.03521,0.008 0.04515,0.0115 0.03286,0.0133 0.09776,0.0186 0.230249,0.0189 0.195953,4.2e-4 0.219011,-0.007 0.318841,-0.0964 0.06676,-0.0601 0.118856,-0.12554 0.158635,-0.19929 0.02118,-0.0393 0.02308,-0.0929 0.0057,-0.16179 -0.01281,-0.0509 -0.06366,-0.12849 -0.11224,-0.17131 -0.02029,-0.0179 -0.03689,-0.0472 -0.03689,-0.0651 0,-0.0343 0.08592,-0.0702 0.103837,-0.0434 0.0031,0.005 0.01173,0.008 0.01924,0.008 0.03154,0 0.03945,0.0217 0.03945,0.10798 0,0.0505 0.0036,0.0841 0.009,0.0841 0.005,0 0.009,0.006 0.009,0.0129 0,0.007 0.02012,0.0315 0.04472,0.0543 0.04059,0.0375 0.04853,0.0414 0.0861,0.0414 0.08305,0 0.144085,-0.059 0.215842,-0.2088 0.02989,-0.0624 0.08675,-0.0766 0.127472,-0.0318 0.0645,0.0709 0.05156,0.0993 -0.06362,0.13966 -0.03276,0.0115 -0.09436,0.0632 -0.110968,0.0931 -0.0065,0.0118 -0.01058,0.0362 -0.009,0.0543 l 0.0029,0.0328 0.07138,0.002 c 0.0413,10e-4 0.07535,-0.001 0.08081,-0.006 0.0052,-0.005 0.01866,-0.009 0.02993,-0.009 0.02166,0 0.07758,-0.026 0.09956,-0.0464 0.01551,-0.0144 0.02508,-0.015 0.04849,-0.003 0.01309,0.006 0.01747,0.0176 0.01747,0.0444 v 0.0357 l -0.110611,0.0108 c -0.06083,0.006 -0.123815,0.0165 -0.139955,0.0234 -0.02763,0.0119 -0.02934,0.0152 -0.02934,0.0563 0,0.0401 0.0032,0.0468 0.03974,0.0826 0.02186,0.0214 0.04623,0.0389 0.05418,0.0389 0.0079,0 0.01444,0.004 0.01444,0.008 0,0.005 0.0168,0.008 0.03734,0.008 0.02843,0 0.04243,0.005 0.05869,0.0213 0.01174,0.0117 0.02135,0.0228 0.02135,0.0247 0,0.0136 -0.02326,0.0459 -0.03305,0.0459 -0.0067,0 -0.0121,0.004 -0.0121,0.008 0,0.005 -0.0071,0.008 -0.0158,0.008 -0.01959,-3.3e-4 -0.0474,-0.0192 -0.0474,-0.0321 0,-0.0299 -0.104384,-0.14304 -0.132015,-0.14304 -0.0069,0 -0.01246,-0.004 -0.01246,-0.008 0,-0.005 -0.01941,-0.008 -0.04314,-0.008 -0.05634,0 -0.07424,0.0182 -0.07424,0.0753 0,0.0229 0.0041,0.0417 0.009,0.0417 0.005,0 0.009,0.006 0.009,0.0126 0,0.0163 0.04451,0.0626 0.06018,0.0626 0.0066,0 0.01205,0.004 0.01205,0.008 0,0.005 0.0097,0.008 0.02154,0.008 0.04049,0 0.06754,0.0691 0.0378,0.0967 -0.01492,0.0138 -0.03225,0.0157 -0.03225,0.004 0,-0.005 -0.0075,-0.008 -0.01661,-0.008 -0.01746,0 -0.03757,-0.0314 -0.03757,-0.0586 0,-0.0383 -0.09526,-0.1502 -0.12787,-0.1502 -0.0091,0 -0.03333,0.015 -0.0538,0.0334 -0.02047,0.0184 -0.04392,0.0334 -0.05211,0.0334 -0.01651,0 -0.07541,0.0449 -0.158698,0.12111 -0.03014,0.0276 -0.0659,0.0554 -0.07947,0.062 -0.01357,0.007 -0.02467,0.015 -0.02467,0.0188 0,0.004 -0.0061,0.007 -0.01354,0.007 -0.0074,0 -0.01354,0.003 -0.01354,0.008 0,0.004 -0.03758,0.01 -0.08352,0.0125 -0.04594,0.003 -0.124154,0.009 -0.173816,0.0132 -0.04966,0.005 -0.116704,0.0103 -0.148984,0.0129 -0.03228,0.003 -0.06682,0.008 -0.07675,0.0122 -0.0099,0.004 -0.03431,0.009 -0.05418,0.0118 -0.01987,0.002 -0.05846,0.008 -0.08578,0.0135 -0.02731,0.005 -0.08259,0.0105 -0.122839,0.012 -0.08779,0.003 -0.1461,0.0116 -0.153043,0.022 -0.0028,0.004 -0.01298,0.008 -0.02262,0.008 -0.0096,0 -0.01752,0.004 -0.01752,0.008 0,0.005 -0.0061,0.008 -0.01367,0.008 -0.0075,0 -0.02072,0.003 -0.02935,0.007 -0.07409,0.035 -0.133141,0.0594 -0.143359,0.0594 -0.0068,0 -0.01228,0.004 -0.01228,0.008 0,0.005 -0.0079,0.008 -0.01753,0.008 -0.0096,0 -0.02004,0.004 -0.02311,0.008 -0.0031,0.005 -0.01448,0.008 -0.02536,0.009 -0.02767,2.6e-4 -0.05559,0.0232 -0.07585,0.0625 -0.02101,0.0407 -0.04135,0.0737 -0.0488,0.0793 -0.0127,0.01 -0.08024,0.1363 -0.08024,0.15056 0,0.009 -0.0036,0.0175 -0.0079,0.02 -0.01862,0.0106 -0.02757,0.18222 -0.01293,0.24789 0.0084,0.0376 0.04463,0.10985 0.06974,0.13902 0.05064,0.0588 0.122671,0.1363 0.149466,0.16078 0.03316,0.0303 0.06091,0.0605 0.09963,0.10854 0.01242,0.0154 0.03079,0.0358 0.04083,0.0453 0.01004,0.01 0.02819,0.0305 0.04033,0.0466 0.01214,0.0161 0.02628,0.0335 0.03141,0.0387 0.0051,0.005 0.01542,0.0166 0.02287,0.0252 0.03238,0.0375 0.0961,0.10862 0.11061,0.12348 0.0087,0.009 0.0158,0.0211 0.0158,0.0272 0,0.006 0.0041,0.0109 0.009,0.0109 0.005,0 0.009,0.008 0.009,0.0167 0,0.009 0.0041,0.0167 0.009,0.0167 0.005,0 0.009,0.008 0.009,0.0167 0,0.009 0.0031,0.0167 0.0068,0.0167 0.0038,0 0.01215,0.0122 0.01865,0.0271 0.0065,0.0149 0.01562,0.0337 0.02026,0.0416 0.0046,0.008 0.0084,0.0202 0.0084,0.0271 0,0.007 0.0041,0.0127 0.009,0.0127 0.005,0 0.009,0.007 0.009,0.0162 0,0.009 0.0041,0.0185 0.009,0.0214 0.005,0.003 0.009,0.0141 0.009,0.0251 0,0.0109 0.0041,0.0222 0.009,0.025 0.005,0.003 0.009,0.0141 0.009,0.0251 0,0.0109 0.0041,0.0222 0.009,0.0251 0.005,0.003 0.009,0.0131 0.009,0.0229 0,0.0215 0.01515,0.067 0.03546,0.10659 0.01431,0.0279 0.01736,0.0294 0.0676,0.0318 0.0514,0.002 0.109238,-0.0143 0.146698,-0.0426 0.03161,-0.0239 0.182267,-0.16591 0.21525,-0.20292 0.03605,-0.0405 0.05722,-0.0599 0.108353,-0.0994 0.02701,-0.0209 0.06772,-0.0284 0.06772,-0.0126 0,0.005 0.0091,0.008 0.02032,0.009 0.01117,1e-4 0.03047,0.008 0.04289,0.0165 0.01242,0.009 0.02557,0.0164 0.02924,0.0165 0.01543,4.3e-4 0.166309,0.12374 0.277058,0.22643 0.06105,0.0566 0.09315,0.0744 0.134044,0.0744 0.03962,0 0.08336,-0.0313 0.08336,-0.0596 0,-0.009 0.0041,-0.0156 0.009,-0.0156 0.005,0 0.009,-0.0129 0.009,-0.0287 0,-0.0158 0.0041,-0.0311 0.009,-0.0339 0.0051,-0.003 0.009,-0.0432 0.009,-0.0924 0,-0.048 0.0036,-0.0872 0.008,-0.0872 0.0044,0 0.0101,-0.008 0.0127,-0.0167 0.0072,-0.0254 0.04916,-0.0219 0.07533,0.006 0.01175,0.0126 0.02136,0.0277 0.02137,0.0335 1.8e-5,0.0165 -0.03719,0.0855 -0.04613,0.0855 -0.0044,0 -0.008,0.007 -0.008,0.0162 0,0.009 -0.0041,0.0185 -0.009,0.0214 -0.005,0.003 -0.009,0.0162 -0.009,0.0297 0,0.0135 -0.0041,0.0246 -0.009,0.0246 -0.0051,0 -0.009,0.0249 -0.009,0.058 0,0.0319 -0.0041,0.0603 -0.009,0.0631 -0.005,0.003 -0.009,0.0181 -0.009,0.0339 v 0.0287 h 0.04913 c 0.02702,0 0.05164,-0.004 0.05471,-0.008 0.0031,-0.005 0.02745,-0.008 0.05418,-0.008 0.02673,0 0.05111,-0.004 0.05418,-0.008 0.0031,-0.005 0.01956,-0.008 0.03665,-0.008 0.01709,0 0.03107,-0.004 0.03107,-0.008 0,-0.005 0.0099,-0.008 0.02204,-0.008 0.01212,0 0.02455,-0.004 0.02762,-0.008 0.0031,-0.005 0.01347,-0.008 0.02311,-0.008 0.0096,0 0.01753,-0.004 0.01753,-0.008 0,-0.005 0.0073,-0.008 0.01625,-0.008 0.0089,0 0.02059,-0.004 0.0259,-0.009 0.0053,-0.005 0.0251,-0.008 0.044,-0.006 0.02842,0.002 0.03579,0.007 0.0427,0.026 0.01088,0.0304 0.002,0.0616 -0.02079,0.0729 -0.01357,0.007 -0.03158,0.005 -0.07149,-0.005 -0.02975,-0.008 -0.06861,-0.012 -0.08785,-0.01 -0.0505,0.006 -0.114483,0.0224 -0.124345,0.0315 -0.0047,0.004 -0.01589,0.008 -0.02483,0.008 -0.0089,0 -0.01625,0.004 -0.01625,0.008 0,0.005 -0.0061,0.008 -0.01354,0.008 -0.0074,0 -0.01354,0.004 -0.01354,0.008 0,0.005 -0.0057,0.008 -0.01258,0.008 -0.01465,0 -0.02354,0.0178 -0.02354,0.0472 0,0.0595 0.16084,0.19501 0.231408,0.19501 0.02814,0 0.08112,0.0323 0.09321,0.0568 0.02124,0.043 0.0056,0.0685 -0.04193,0.0685 -0.03444,0 -0.0431,-0.006 -0.17181,-0.1232 -0.05555,-0.0505 -0.10224,-0.0862 -0.113819,-0.0869 -0.03933,-0.003 -0.05606,0.002 -0.07135,0.0203 -0.01678,0.02 -0.02184,0.0729 -0.007,0.0729 0.005,0 0.009,0.011 0.009,0.0246 0,0.0135 0.0041,0.0269 0.009,0.0297 0.005,0.003 0.009,0.0238 0.009,0.0465 0,0.0228 0.0041,0.0489 0.009,0.058 0.005,0.009 0.01386,0.025 0.01977,0.0354 0.04606,0.0806 0.04644,0.0821 0.02756,0.10557 -0.02595,0.0323 -0.06947,0.0339 -0.09765,0.004 -0.01204,-0.013 -0.0219,-0.0337 -0.0219,-0.046 -6e-6,-0.0124 -0.0041,-0.0248 -0.009,-0.0276 -0.0051,-0.003 -0.009,-0.0431 -0.009,-0.0919 0,-0.0488 -0.0039,-0.089 -0.009,-0.0919 -0.005,-0.003 -0.009,-0.0121 -0.009,-0.0206 0,-0.0262 -0.03582,-0.0791 -0.06097,-0.0901 -0.04813,-0.021 -0.09844,-0.0114 -0.142026,0.0272 -0.02452,0.0217 -0.06953,0.0837 -0.08875,0.12225 -0.02033,0.0408 -0.06352,0.0824 -0.08556,0.0824 -0.03846,0 -0.06662,-0.0781 -0.03884,-0.10773 0.009,-0.01 0.02067,-0.0175 0.02583,-0.0175 0.03882,0 0.16365,-0.0912 0.182532,-0.1334 0.01015,-0.0227 0.0087,-0.0302 -0.01461,-0.073 -0.03118,-0.0575 -0.161641,-0.18236 -0.218645,-0.20934 -0.02273,-0.0108 -0.0557,-0.0186 -0.07841,-0.0186 -0.03463,0 -0.04382,0.004 -0.07915,0.038 -0.02199,0.0209 -0.04561,0.0482 -0.05251,0.0606 -0.0069,0.0124 -0.01477,0.0244 -0.0175,0.0267 -0.0027,0.002 -0.0147,0.0173 -0.02661,0.0334 -0.02697,0.0364 -0.121212,0.14402 -0.160198,0.18289 -0.04715,0.047 -0.06082,0.10451 -0.04948,0.20822 0.01076,0.0985 0.01877,0.10932 0.08095,0.10975 0.02111,1.5e-4 0.03837,0.004 0.03837,0.009 0,0.005 0.01601,0.008 0.03558,0.008 0.01957,0 0.0381,0.004 0.04117,0.008 0.0031,0.005 0.01932,0.008 0.03612,0.008 0.0168,0 0.03305,0.004 0.03612,0.008 0.0031,0.005 0.01314,0.008 0.02239,0.008 0.02395,0 0.134326,0.0536 0.171744,0.0834 0.01738,0.0138 0.03482,0.0252 0.03875,0.0252 0.0039,1e-5 0.01587,0.008 0.02653,0.0167 0.01066,0.009 0.02471,0.0167 0.03122,0.0167 0.0065,0 0.01184,0.004 0.01184,0.008 0,0.005 0.0081,0.008 0.01806,0.008 0.0099,0 0.01806,0.004 0.01806,0.008 0,0.005 0.0081,0.008 0.01806,0.008 0.0099,0 0.01806,0.004 0.01806,0.008 0,0.005 0.006,0.008 0.01344,0.008 0.01454,0 0.03643,0.0149 0.0804,0.0546 0.02666,0.0241 0.03609,0.0365 0.05684,0.0749 0.005,0.009 0.01373,0.0251 0.01947,0.0354 0.0057,0.0103 0.01044,0.0281 0.01044,0.0397 0,0.0115 0.0041,0.021 0.009,0.021 0.0051,0 0.009,0.0249 0.009,0.058 0,0.0319 0.0041,0.0603 0.009,0.0631 0.005,0.003 0.009,0.0386 0.009,0.0794 0,0.0408 0.0041,0.0765 0.009,0.0794 0.005,0.003 0.009,0.016 0.009,0.0292 0,0.0132 0.0041,0.0264 0.009,0.0292 0.005,0.003 0.009,0.0143 0.009,0.0255 0,0.0112 0.0041,0.0204 0.009,0.0204 0.005,0 0.009,0.008 0.009,0.0167 0,0.009 0.0041,0.0167 0.009,0.0167 0.005,0 0.009,0.009 0.009,0.0209 0,0.0115 0.0041,0.0209 0.009,0.0209 0.005,0 0.009,0.006 0.009,0.0126 0,0.007 0.0041,0.0201 0.009,0.0292 0.005,0.009 0.01309,0.0241 0.01806,0.0332 0.005,0.009 0.009,0.0223 0.009,0.0292 0,0.007 0.0041,0.0126 0.009,0.0126 0.005,0 0.009,0.008 0.009,0.0168 0,0.0162 0.0032,0.0243 0.02568,0.0645 0.0057,0.0103 0.01044,0.026 0.01044,0.035 0,0.009 0.0041,0.0186 0.009,0.0215 0.005,0.003 0.009,0.0141 0.009,0.0251 0,0.0109 0.0036,0.022 0.0081,0.0245 0.01292,0.007 0.02047,0.067 0.02489,0.19641 0.0039,0.11351 0.0029,0.12297 -0.01668,0.15868 -0.04101,0.0749 -0.117689,0.12767 -0.217319,0.14963 -0.04907,0.0108 -0.04996,0.0108 -0.07436,0.001 z"
       id="path7371"
       inkscape:connector-curvature="0"
       inkscape:export-filename="C:\Users\evanm\image7314.png"
       inkscape:export-xdpi="7.39149"
       inkscape:export-ydpi="7.39149"
       sodipodi:nodetypes="cccscssssssscccccssscscssscsssccccscsscccccscssssscscscsssscsscssscssscscssscscscccccsccsssssscsssccssccssscscccsssssscsccscscscccccccsccccccscccccsccscscssscscssssscssscscccssccccscscssscccccccsccccccsscccsssscssssscscscscssscssscccssscccsssssscccccscccsscsccssssccssscccscsccssssccscsscsssscscscsccssssccccccccscscccccscscssscsccccccccccscsssscsccccccccsccscccscssscssscsssssssssscssssssccsssccccccccssscsssccccsccccccscccssssssscssscscscscccccsccccsssscsscccsscssscscscscssscssscccccccssssssscscccsscsccccccscscccscscccscscccccsscscscccssssssscccssscscscsssssssccssscscscccccc" />
    <text
       xml:space="preserve"
       style="font-style:normal;font-variant:normal;font-weight:normal;font-stretch:normal;font-size:10.6025219px;line-height:1.25;font-family:'Sitka Display';-inkscape-font-specification:'Sitka Display';letter-spacing:0px;word-spacing:0px;fill:#93edff;fill-opacity:1;stroke:none;stroke-width:0.26506305"
       x="1.2318916"
       y="112.2263"
       id="text6123"
       transform="scale(0.94659867,1.0564139)"><tspan
         sodipodi:role="line"
         id="tspan6121"
         x="1.2318916"
         y="112.2263"
         style="font-style:normal;font-variant:normal;font-weight:normal;font-stretch:normal;font-size:7.06834745px;font-family:'Sitka Subheading';-inkscape-font-specification:'Sitka Subheading';fill:#93edff;fill-opacity:1;stroke-width:0.26506305">Macro</tspan></text>
    <text
       xml:space="preserve"
       style="font-style:normal;font-variant:normal;font-weight:normal;font-stretch:normal;font-size:7.09767008px;line-height:1.25;font-family:'Sitka Subheading';-inkscape-font-specification:'Sitka Subheading';letter-spacing:0px;word-spacing:0px;fill:#93edff;fill-opacity:1;stroke:none;stroke-width:0.2661626"
       x="26.614553"
       y="112.69678"
       id="text6127"
       transform="scale(0.95045668,1.0521258)"><tspan
         sodipodi:role="line"
         id="tspan6125"
         x="26.614553"
         y="112.69678"
         style="fill:#93edff;fill-opacity:1;stroke-width:0.2661626">Newt</tspan></text>
  </g>
</svg>
